<svg version="1.1" id="Layer_1" xmlns="http://www.w3.org/2000/svg" xmlns:xlink="http://www.w3.org/1999/xlink" x="0px" y="0px" viewBox="0 0 512.001 512.001" style="enable-background:new 0 0 512.001 512.001;" xml:space="preserve">
    <g>
        <g>
            <path fill="#dc2626" d="M267.446,0c-56.38,0-102.249,45.87-102.249,102.249c0,31.096,10.861,69.063,28.346,99.082
			c17.922,30.769,40.088,49.519,63.323,53.909l-4.614,31.307c-5.132,34.827-20.901,66.493-45.603,91.575
			c-17.266,17.531-30.676,37.997-39.859,60.828l-10.137,25.208c-2.102,5.226,0.431,11.166,5.657,13.269
			c1.248,0.501,2.536,0.739,3.803,0.739c4.041,0,7.866-2.418,9.466-6.396l10.136-25.208c8.172-20.316,20.105-38.525,35.468-54.126
			c27.76-28.187,45.482-63.773,51.251-102.913l5.036-34.171c23.439-4.194,45.815-23.003,63.879-54.019
			c17.485-30.02,28.346-67.985,28.346-99.082C369.695,45.87,323.827,0,267.446,0z M323.723,191.065
			c-16.577,28.461-37.088,44.783-56.277,44.783s-39.7-16.323-56.277-44.783c-15.775-27.084-25.574-61.116-25.574-88.815
			c0-45.133,36.718-81.851,81.851-81.851c45.133,0,81.851,36.718,81.851,81.851C349.297,129.948,339.498,163.981,323.723,191.065z"/>
        </g>
    </g>
    <g>
        <g>
            <path fill="#dc2626" d="M159.116,485.37c-5.223-2.103-11.167,0.431-13.268,5.656l-2.802,6.966c-2.103,5.226,0.43,11.166,5.656,13.268
			c1.247,0.502,2.535,0.74,3.803,0.74c4.041,0,7.866-2.418,9.465-6.396l2.802-6.966C166.874,493.411,164.342,487.471,159.116,485.37
			z"/>
        </g>
    </g>
</svg>
